<?xml version="1.0" encoding="UTF-8"?>
<svg version="1.1" viewBox="0 0 900 900" width="1280" height="1280" xmlns="http://www.w3.org/2000/svg">
<path transform="translate(432,45)" d="m0 0 4 1 8 7 3 6 1 6v12l-1 4 20-5h19l-1 4-4 4-1 6 7 2h11l13-5 10-7h3l-1 12 11 1 19 4 18 7v3l-11 6-3 6 2 8h23l25 1 8-3-1 5-8 18 16-1 17 5 12 6 8 1 7-3h3l-1 13-8 16 7 8 10 11 3 3 7 3h5l3-2h4l-1 5-5 8-7 6-12 3-1 3 5 6 13 1-1 6-9 19-1 5h7l2 1-1 4-8 6-8 5-5 5 1 7-5 5-10 6-10 5v17l-4 52-3 37v12h11l8 4 7 8 5 11 4 15 1 7v16l-3 12-6 11-14 21-8 11-9 10-8 5-19 5h-2l-2 9-4 17-5 12-7 10-8 8-14 11-8 7-4 7-3 15-2 18v8l2 7 4 2h7l10 4 11 9 19 7 8 6 10 13 10 18 6 12 5 5 6 5 19 9 35 15 27 11 31 12 25 10 17 9 13 11 10 10 19 13 16 8 12 8 5 6h-849l3-5 7-6 9-2h19l3 3 2 5 12-22 10-14 11-12 15-10 16-8 24-10 30-12 34-14 25-11 14-6 5-4 6-1h3l3-4 3-14 2-9 6-9 7-7 14-7 9-10 7-9 9-7 6-1 1-3v-32l-2-10-7-8-9-7-18-18-9-14-7-18-5-14v-2l-11-1-12-4-6-4-9-9-12-17-9-14-7-14-4-18v-8l4-19 7-14 8-9 11-4 6-1-6-54-3-29-4-40-4 1-2 2-6-1-2-6v-16l3-11-1-7-5-11-1-4v-9l6-20 1-43 3-1 7 3 13 2v-20l3-10 5-17-1-6-5-7 4-4 7-3 13-1 15 4h4l3-8 1-8 3-1 2-4 7-9 7-6 14-8 16-8 10-7 4-7 1-8 3-1 8 4 8 8 7 11 4 5 5-2 4-3 10-1 13-7 5-4 4-7v-7z" fill="#E17B62"/>
<path transform="translate(432,45)" d="m0 0 4 1 8 7 3 6 1 6v12l-1 4 20-5h19l-1 4-4 4-1 6 7 2h11l13-5 10-7h3l-1 12 11 1 19 4 18 7v3l-11 6-3 6 2 8h23l25 1 8-3-1 5-8 18 16-1 17 5 12 6 8 1 7-3h3l-1 13-8 16 7 8 10 11 3 3 7 3h5l3-2h4l-1 5-5 8-7 6-12 3-1 3 5 6 13 1-1 6-9 19-1 5h7l2 1-1 4-8 6-8 5-5 5 1 7-5 5-10 6-10 5v17l-4 52-3 37v14h4l-2 5-8 5-3 4-5 3-3 3h-2l-1-56-2-5-10-8-5-5-4-5-3-9-5-29-4-10v-9h-7l-26-8-12-4-12-6h-1l-1 9-1 1-8-1-10-6-4-2 5 9 4 5v4l-4 1-11-7-16-5-26-3-17-6-14-6-1 1 4 7-1 3-5-1-16-8-11-4-10-4-13-3-13-1-13 5-4 3h-4v2l-7-1-3-2h-6l-2 5-1 1h-8l-2-1h-27l-22 2-14 4-6 4h-2l-1 3-5 4-6-1-2-6v-16l3-11-1-7-5-11-1-4v-9l6-20 1-43 3-1 7 3 13 2v-20l3-10 5-17-1-6-5-7 4-4 7-3 13-1 15 4h4l3-8 1-8 3-1 2-4 7-9 7-6 14-8 16-8 10-7 4-7 1-8 3-1 8 4 8 8 7 11 4 5 5-2 4-3 10-1 13-7 5-4 4-7v-7z" fill="#281823"/>
<path transform="translate(339,695)" d="m0 0h4l1 2v22l-2 20 6 8 12 13 9 11 14 15 36 36 8 12 13 19 5 4 8-10 13-18 16-17 7-7 8-7 14-14 7-8 11-11 7-8 9-11 2-10 1-28 1-5h8l11 4 4 5 2 5 5 2 1 4v60l-3 26-2 24-3 28-4 37-1 2h-543l3-5 7-6 9-2h19l3 3 2 5 12-22 10-14 11-12 15-10 16-8 24-10 30-12 34-14 25-11 14-6 5-4 6-1h3l3-4 3-14 2-9 6-9 7-7 14-7 9-10 7-9 7-6z" fill="#281823"/>
<path transform="translate(547,644)" d="m0 0h3l-4 38v8l2 7 4 2h7l10 4 11 9 19 7 8 6 10 13 10 18 6 12 5 5 6 5 19 9 35 15 27 11 31 12 25 10 17 9 13 11 10 10 19 13 16 8 12 8 5 6h-306l4-39 4-37 2-23 2-18v-60l-1-4-4-1-2-2-2-5-2-4-7-1-4-2-8-1-1 34-2 9-9 11-16 17-8 8-7 8-15 15-8 7-9 9-7 8-14 19-8 10-7-6-12-18-10-14-43-43-7-8-11-13-11-12-3-5 2-20v-24l-4 1h-7v-1l6-1 1-3v-41l-1-5h3v2l5 1 4 2v2h3v2h3v2h3v2h3l5 5 8 3v2l5 1 6 4v2l6 2 8 4 8 2 13 6 12 3h19l23-8 10-3 21-10 11-6 2-3h4l1-3 3-2h4v-2l11-6z" fill="#B65958"/>
<path transform="translate(311,717)" d="m0 0 1 2-4 9 5 6 7 17v3h2l3 6 8 8 1 4-3 25-2 7-1 11h2l4 27 2 20 2 7 2 17v14h-316l3-5 7-6 9-2h19l3 3 2 5 12-22 10-14 11-12 15-10 16-8 24-10 30-12 34-14 25-11 14-6 5-4 6-1h3l3-4 3-14 2-9 6-9 7-7 14-7z" fill="#F56A8A"/>
<path transform="translate(236,216)" d="m0 0 8 1 6 8 5 5 1 3 2 1 2 4 5 3 4 4 14 9 7 5 17 8 8 2h8l2-1 15-1 8-3 9-2 7-5h2v-2l6-5 1-2h2l1-3 8-7 4-2 1-3 7-5h6l3 4v2l4 2 6 4 8 4 7 2 7 5 14 5 26 5h15l12-5 13-8 6-5 7 1 15 3 3 7 7-1 7 3 5 1h9l4-3 5 1 1 5-5 2 2 2 6 3 15 1 4-2 2-10 11-1 1 5-4 5 2 5 5 6 5 3 4 5 9 4 14 1 1-2v2h2l1 4-2 5-14 9h-2l-2 6-2 5-1 13h-2l-2 4-2 3-9-1-3-2 3 5v2l3 1v3h-7l-7-3-13-6-11-4-4-4-1-2v-9h-7l-26-8-12-4-12-6h-1l-1 9-1 1-8-1-10-6-4-2 5 9 4 5v4l-4 1-11-7-16-5-26-3-17-6-14-6-1 1 4 7-1 3-5-1-16-8-11-4-10-4-13-3-13-1-13 5-4 3h-4v2l-7-1-3-2h-6l-2 5-1 1h-8l-3-2h-35l-12 1-12 3-6 3-7-1-2-6v-5l1-2-1-10 1-5-2-4v-3h-2l-2-9v-13l2-8h2l-1-4 2-7 2-2z" fill="#0C060A"/>
<path transform="translate(635,776)" d="m0 0 9 2 19 9 35 15 27 11 31 12 25 10 17 9 13 11 10 10 19 13 16 8 12 8 5 6h-212l-4-27-1-8h-2l-6-29-5-25-4-17-5-14z" fill="#281822"/>
<path transform="translate(265,786)" d="m0 0h1v9l-5 26-2 16-7 36-4 24-2 3h-172l1-7 2-5h2l1-4 2-3h2l1-4 8-12 5-5h2l1-3 9-6 9-7 8-4 8-3 9-2 10-4 3-2 11-3 6-3h5l1-3 7-1v-2l7-3 4-3 4-1 6-2 3 1v-2l8-3 9-3 6-3 1-2 12-4h6l4-4 7-1z" fill="#281823"/>
<path transform="translate(575,709)" d="m0 0 8 4 16 6 8 6 10 13 10 18 6 12 5 5 3 4h-6l2 9 5 15 6 29 5 26 1 9h2l4 19 1 16h-94l4-39 4-37 2-23 2-18 1-15v-51l-5-6z" fill="#949FBF"/>
<path transform="translate(547,644)" d="m0 0h3l-1 7-5 3h-2v8l-2 5-3 7 2 4-4 8h-3l-1 3-8 7-6 5-5 3-11 9-7 4-1 2-7 4h-2l-1 3-5 1v2h-2l-1 3-5 1-1 3-7 3-9 3-2 2-12 2h-12l-9-2-11-6-5-3v-2l-4-1v-2l-4-1-4-3-4-2-1-2-6-3-6-5-8-6-16-16-5-6-1-9-1-3 1-4 1-6 1-5v-4l-3-1-1-3-2-1-1-5h3v2l5 1 4 2v2h3v2h3v2h3v2h3l5 5 8 3v2l5 1 6 4v2l6 2 8 4 8 2 13 6 12 3h19l23-8 10-3 21-10 11-6 2-3h4l1-3 3-2h4v-2l11-6z" fill="#924146"/>
<path transform="translate(253,301)" d="m0 0h23l12 1 5 2 12 3-2 10-5 18-4 28-4 10-11 12-10 9v62l-7-6-7-5-2-3-3-1v-2l-4-1-2-3h4l-3-31-5-43-2-24-1-28 3-3z" fill="#582526"/>
<path transform="translate(607,733)" d="m0 0 5 2 7 10 7 14 5 17v8l-4 8-4 15-2 12-6 29-6 27-3 25h-39l4-39 2-21 2 3 5-14 13-43 9-35z" fill="#68BF9C"/>
<path transform="translate(311,717)" d="m0 0 1 2-4 9 5 6 7 17v3h2l3 6 8 8 1 4-3 25-2 7-1 11h2l4 27 2 20 2 7 2 17v14h-7l-13-40-6-16-10-29-6-17-5-15-4-6-2-7v-5l-4 1-2 5-6 5-4 1-1-4 5-6 3-14 2-9 6-9 7-7 14-7z" fill="#F4AFA0"/>
<path transform="translate(356,282)" d="m0 0 13 1 19 5 11 5 11 4 11 6h3l-4-10 2-1 27 11 21 3 12 2 13 4 11 7h4l-3-7-4-5-2-3v-3l4 1 10 6 8 1 1-9 2-1 14 7 36 11 7 1 1 9 2 6-3-2-6-1-27-6-17-3h-7l-5 1v3l-2 1h-6l-9-2-8-2-6-1h-20l-21-1-8-4-10-4-4 2h-6l-8-5-17-7-12-3-8-1-2 1-5-1h-29l-7 1-9 4-9 2-9 6-2 2 1-6-12-2-5-2-12-1h-23l-13 5h-2v20h-1l-2-18-1-2 5-5 6-3 12-3 22-2h27l2 1h8l3-6h6l6 3 4 1v-2l7-3 11-5z" fill="#B55857"/>
<path transform="translate(233,450)" d="m0 0 5 1 4 2v2h3l9 11 11 12v2l3 1 2 6 1-4h2l3 17 4 23 2 13 1 1 3 21 1 3v12l-2-2-3-9-5-30-2-5-2-1v13l-4 1-3-3v-3h-2l-1 4-3 2h-5l-1-3h-2l-2-2-1-2-4-2v-2h-2l-6-8-1-2 1-2-4-1-3-5-6-16-4-8v-10l1-6 2-10 5-9z" fill="#B65958"/>
<path transform="translate(649,451)" d="m0 0h7l5 8 3 9 2 17-3 11-6 12h-2l-1 4-6 8v2l-10 10-4 3h-2l-2 4-7 1v-5h-2v2h-2v2h-3v2h-4l2-13-4 3-3-1v14l-3 20-4 2v-17l1-5h2v-11l3-16 2-6 2-17 2-2v13l-2 13 5-3 5-7 2-6 1-2h-3l-1-1-1-3h2l-3-7 1-8 2-8 2-3h2v-2l6-3 6-6 4-2 1-2 5-2h3z" fill="#B75A59"/>
<path transform="translate(339,695)" d="m0 0h4l1 2v22l-2 20 6 8 12 13 9 11 14 15 36 36 8 12 7 10-1 2-5-4-2-5h-2l-6-7-2-1-1-1-2 2-4-6-2-1v-2h-2v-2l-4-2-2-2v-3l-4-2-4-4v-2l-5-2-1-3-4-2v-2h-2v-2h-2l-2-3-3-1v-2l-4-2-1-1h-7l-1-7-3-4v-3h-2v-2h-3l-1 14 4 5 3 5 2 2v4h-2l-6-8-4-2-2-3-5-5-2-4-1 7 1 2v8l-4 2-4 9-1-3 3-19 1-11-3-5-5-5-3-5v-2h-2l-8-20-5-7 7-14 9-11 7-6z" fill="#31191E"/>
<path transform="translate(635,776)" d="m0 0 9 2 19 9 35 15 27 11 31 12 25 10 17 9 13 11 10 10 19 13 16 8 12 8 5 6h-42l-1-6-6-12-3-3v-2h-2l-5-6-6-4v-2l-4-1-4-4v-2l-5-2-10-7-24-10-7-3-8-3-9-3-2-1v-2l-8-2v-2l-9-1-1-2-11-3-2-2-6-2-6-3-4-1v-2l-6-1-6-3-9-1-4-2-5 1-2 1-2-1-2 4-4 2-2-1 2 12 5 25 2 15v7h-1l-6-29-5-25-4-17-5-14z" fill="#46262C"/>
<path transform="translate(641,315)" d="m0 0 2 3v13l-4 52-3 37v14h4l-2 5-8 5-3 4-5 3-3 3h-2l-1-56-2-5-10-8-5-5-4-5-3-9-5-29 1-3v2l8 1 12 5 25 13 3 1 1-2h2z" fill="#582626"/>
<path transform="translate(262,774)" d="m0 0h7v10l-2 10h-1l-1-7-4 1h-4l-1 3-5 2-8 1-4 2h-4l-1 3-10 5-13 3v2l-8 1-5 3h-2l-4 3-5 1v2h-4l-1 2h-2l-1 2-10 3-7 3-7 2-2 2-9 3-9 2-12 5-8 5-7 6-7 4-5 5-4 5-7 10-1 3h-2l-2 4-1 3h-2l-1 5-2 7h-50l3-5 7-6 9-2h19l3 3 2 5 12-22 10-14 11-12 15-10 16-8 24-10 30-12 34-14 25-11 10-4 5-1 3-1z" fill="#44252C"/>
<path transform="translate(549,703)" d="m0 0h8l11 4 4 5 2 5 5 2v4l-2 1-3 11-1 11-2 9-5 5 1-8-1-5-4 4v2h-2v2l-4 1-3-3-7-2-1 3 2 1-1 2 6-1 1 4-2 7-3-1v2l-7-1v2l-5 1-2-5-5 5h-2v3l3 1-1 3-7 4-4 9-4 6-5 1-3 5-7-1-1 6-5 5-3 5-2 6-5 1-3-1v2l-4 1-2 4-1 7 1 5-5 1-2-1v2h-2l-1 2-5 2h-3l-4 4-2 4-5 4-7-6 1-2 6 5 8-10 13-18 16-17 7-7 8-7 14-14 7-8 11-11 7-8 9-11 2-10 1-28z" fill="#2E181D"/>
<path transform="translate(256,303)" d="m0 0h31l15 5 1 4-5 15-2 2-1 10-5 5-9 1-6 4-4 2-3 2-2-1v2l-6 4-6 1-1-4 1-7-3-3-2-5-3-4v-4h-2l-1-8 1-8h3v-9l3-2h6z" fill="#0C060A"/>
<path transform="translate(536,435)" d="m0 0h14l16 4 11 6 9 7 4 2 1 5-5 11-5 6h-1l1-9 1-8-15-9-8-3h-11v2l-4 3v5l3 2 6 2v11h-15l-1 6-6 8-6 1-5-4-2-9v-2l-10-1-1-1v-12l-5 2-4 1 2-5 11-11 10-6 9-3z" fill="#11080D"/>
<path transform="translate(338,435)" d="m0 0h12l13 3 10 6 8 7 3 5v2l-4-1-4-3h-5l-1 1v5l4 3 4 1 1 6-1 1-9 1-2 9h-2l-2 4-1 1h-7l-4-2-2-10h-15l-2-1v-15l4-13-20 6-9 5-3 3h-2l3 10v4l-3-1-2-4-5-5-1-5 5-6 10-7 12-6 9-3z" fill="#0F070B"/>
<path transform="translate(575,709)" d="m0 0 8 4 16 6 8 6 10 13 10 18 6 12 3 5-4-2-5-6-7-17-7-10-1-3-5-2-2 10-7 28-9 31-10 34-4 8h-1v-11l3-32 2-18 1-15v-51l-5-6z" fill="#F2EAC7"/>
<path transform="translate(435,541)" d="m0 0h12l12 4 9 6 8 6v2h3l1 6-12 5-5 4-16 5h-9l-13-3-10-7-1-3-9-1-2-1 1-4 4-2v-2h2l2-4 16-8z" fill="#B55958"/>
<path transform="translate(641,818)" d="m0 0 5 1 5 28 3 13v5h2l4 19 1 16h-34l-1-9 3-21 5-18 5-30z" fill="#B195B7"/>
<path transform="translate(524,389)" d="m0 0h23l18 3 13 5 10 7 3 4-42 1-41 4h-20l-1-5 2-4h2l2-4 9-4 7-3 9-3z" fill="#140A0E"/>
<path transform="translate(335,389)" d="m0 0h21l15 3 18 7 5 2 2 5 1 1v6h-25l-24-3-26-2h-28v-3l9-6h2l1-3 20-6z" fill="#13090E"/>
<path transform="translate(607,733)" d="m0 0 5 2 7 10 7 14 5 17v8l-4 8-4 15-2 12-6 29-6 27-3 25h-4l-1-10 2-16 1-12 5-20 3-16 2-12 2-20v-6l1-4-2-12-1-4-1-5-1-3 2-2-5-3-3-6-2 3-3 12-1-4 6-24z" fill="#7DBEA3"/>
<path transform="translate(253,301)" d="m0 0h23l12 1 3 2-35-1v2l-9 1-7 4v17l2 9 1 19 3 14v3l6-2 5-4 7-4 14-9 2 1-4 2v2l-5 3 3 2-2 5h-2l-2 4-3 5-4-1 3 7v6l-2 5-1 7h2v2h-2l-1 5-1 3h-2l-1 6 2 5 2 10-5 5-6-1-2 3-3-4h4l-3-31-5-43-2-24-1-28 3-3z" fill="#552A2E"/>
<path transform="translate(311,756)" d="m0 0h6l15 11 2 5-3 25-2 7h-2v3h-7l-10-3-2-3-2-10-6-10-4-5-2-4 1-5 5-5z" fill="#FDFCFA"/>
<path transform="translate(259,833)" d="m0 0 9 18 6 15 4 14 2 19-1 1h-33l3-16 8-43z" fill="#B195B7"/>
<path transform="translate(550,446)" d="m0 0h9l10 4 13 8 1 5-5 16-7 9-9 6-10 4-5 1h-9l1-4 8-5 3-7 4-13v-11h-8l-3-2v-5l3-3h2v-2z" fill="#FBF8F7"/>
<path transform="translate(219,472)" d="m0 0 3 1-1 8v6l5 11 5 13 3 5 3 1 1 4 5 6v2h2l5 5 2 1v2h2l1 2h5l2-2 2-3h2l3 5h3l1-13 3 1 3 9 4 26 1 4-10-1-5-4h-5l-1-3h-6v-2l-6-1-3-3-4-2-4-6-4-8-4-10-2-1-2-7h-2l1-5h-2v-5l-2-1-3-7-2-10v-17z" fill="#E07B63"/>
<path transform="translate(333,445)" d="m0 0h3l-2 9-2 10v13l3 7 5 8 5 4 1 3-1 1-8-1-12-4-9-5-7-7-7-21v-3l6-5 10-5z" fill="#FAF7F5"/>
<path transform="translate(283,765)" d="m0 0h4l3 12 5 9 5 16 7 18 6 18 7 20 1 6-1-3-4-1-3-3-4-9-2-11-2-4v-3h-2v-2h-2v-5h-2l-4-8-2-3-2 1v-2h-3v-2h-2l-2-6-2-5 1-1-3-3-2-7-6-3v-2h-2l1 3-3 2 1-13h-7v2l-5 3-1-2 9-6 5 1 1 5 8-5 2-2z" fill="#F07485"/>
<path transform="translate(293,406)" d="m0 0 1 2 11-1h17l37 3 13 2 25 1 1-3 1 1 1 13-1 17-2 2h-10l-13-8-11-7-5-4 1-5 6-4-3-2-29-3-41-1z" fill="#B35857"/>
<path transform="translate(591,407)" d="m0 0 2 1v2h-40l-25 2-6 2 1 3 2 1 1 5-2 4-9 5-17 8-5 2h-6l-2-2-1-9 2-15 2-4h20l41-4z" fill="#B65958"/>
<path transform="translate(289,304)" d="m0 0 10 1 6 2-2 10-5 18-1 8-3 3-4-1-2 4-17 9-11 8-7 4-2 2h-5l-4-17-1-19-2-9v-17l8-5 3 1-3 1v9h-3v16h2l3 7 3 4 2 4 1 4-1 8 7-3 5-2v-2h3l2-2 9-5 6-2h6l2-4 1-10 3-4 4-13v-3l-13-4z" fill="#281822"/>
<path transform="translate(305,97)" d="m0 0 1 3-2 5-4 5-1 2v7l-3 5-2 2h-12l-8-2h-11l-4 2-1 16-3 14-1 3-3 2-1 17 1 6-3 5-2 1-15 1v2l-2 1-1 16-1 4-1 16-3 16v20l3 5v5l-2-2-6-14-1-4v-9l6-20 1-43 3-1 7 3 13 2v-20l3-10 5-17-1-6-5-7 4-4 7-3 13-1 15 4h4l3-8 1-8 3-1 2-4z" fill="#563037"/>
<path transform="translate(521,80)" d="m0 0h3l-1 12 11 1 19 4 18 7v3l-5 3h-3l-2-6-3-2-9-2-4 1-10-2-7 1-3 1 4 4-1 4h-5l-12-6-10-2-4-1v-2l-9-2-7-3 4-1h13l13-5z" fill="#47262D"/>
<path transform="translate(812,857)" d="m0 0 7 6 16 12 23 12 11 8 4 5h-38l-4-13-1-6h-2l-5-7-5-9-5-4z" fill="#F3CDBF"/>
<path transform="translate(651,850)" d="m0 0h1l2 10v5h2l4 19 1 16h-22l2-19 3-16 3-6h2z" fill="#F07184"/>
<path transform="translate(254,778)" d="m0 0 2 1-4 2-3 3-7 5-4 2h-7v2l-7 3-7 2-24 10-15 6-9 4-16 6-11 4-13 6-7 3-14 9-10 9-9 10-10 15h-2l-2 5-1 2-2-1 10-18 13-16 8-7 14-9 16-8 34-14 33-13 23-10 26-11z" fill="#813E44"/>
<path transform="translate(638,777)" d="m0 0 6 1 19 9 35 15 27 11 31 12 25 10 17 9 13 11 3 6 6 5 6 11 2 4h2l4 11v5l-2-3-6-12-7-10v-2h-2l-4-6-12-13-9-5-11-7-14-6-9-3-17-7-16-6-7-3-13-6-9-3-9-4-14-7-20-7-13-6z" fill="#A05359"/>
<path transform="translate(637,461)" d="m0 0v3l-1 5 8 10 5 12-1 5-5-5-6-11-5-4v9l3 12-2 5-14 16-4-1 5-9 3-3 2-6h-2l-2-7-2-5 1-7 2-5h2l2-5z" fill="#934146"/>
<path transform="translate(374,463)" d="m0 0h5l1 2-1 16-3 6-6 7-4 1-2-4h-8v-2l-9-2-2 5-5-1-4-3-4-8-1-3v-13h1v9l17 1 2 10 4 1h7l3-4h2l1-9 1-1 9-1v-6z" fill="#B75B59"/>
<path transform="translate(268,483)" d="m0 0 3 4v-4h2l3 17 4 23 2 13 1 1 3 21 1 3v12l-2-2-3-9-5-30-2-5-2-1-1 3-3-11-6-9-2-6 1-5 3-3 2-4z" fill="#DC7761"/>
<path transform="translate(552,458)" d="m0 0 3 1v11l-5 17-7 5h-3v-3h-6l-6 2-8-1-5-2-6-2-2-5-1-6v-12h1l1 7 10 2 3 11 4 3 6-1 5-7 2-6h15l-1-11-5-1v-1z" fill="#B35857"/>
<path transform="translate(669,470)" d="m0 0h2l1 7v16l-3 12-6 11-14 21-8 11-9 10-8 5-10 3h-6l5-4 4-2v-2l8-3 4-3 2-2 1-2h2l2-4 4-5 3-5 4-5 5-8 4-1 2-8 3-5 2-6h2l1-8h2v-7l1-2z" fill="#EA948D"/>
<path transform="translate(289,569)" d="m0 0 2 2 2 9 8 21 3 4 4 2v3h2l3 3 3 5v2l2 1 5 5 5 6 3 3 4 8 4 4 1 3v9h-1l-2-10-7-8-9-7-18-18-9-14-7-18-2-9 3 1z" fill="#E9918B"/>
<path transform="translate(635,776)" d="m0 0 5 3 1 2 21 8 16 6 12 6 11 5 13 5 10 4 11 5 19 7 8 3 7 3 12 5 5 4-6-1v-2l-7-1-16-6-7-4-8-2v-2l-8-1-13-5-9-4-7-3-15-7-8-3-8-5-8-2-10-4-11-5h-4v7l3 12 2 5 3 12 4 22 2 15v7h-1l-6-29-5-25-4-17-5-14z" fill="#5D3841"/>
<path transform="translate(331,825)" d="m0 0 4 3h2l2 6 4 2 1-5h2l1-6 5 1 2 7-1 8-7 4-2 6h-2v-3l-1 5-1 11-1 3 4 9v9l-1 4 2 4-1 7h-3l-3-31-3-14-2-20z" fill="#361B20"/>
<path transform="translate(641,315)" d="m0 0 2 3v13l-4 52-3 37v14h4l-2 5-3 1-1-5-3-6-2-8v-13l3-7 1-15 1-10v-13h2l2-9 1-2z" fill="#643B44"/>
<path transform="translate(43,887)" d="m0 0h19l3 3 2 5 4-7 1 2-3 7h-2v3h-43l3-5 7-6z" fill="#F2CABC"/>
<path transform="translate(418,632)" d="m0 0 46 1-2 3-6 2h-4l-2 6 1 3-3 6h-10l-5-3-1-5-1-6-11-3-2-1z" fill="#D06F5F"/>
<path transform="translate(340,703)" d="m0 0 2 2v20l-3 13-4-2-8-11-4-9-1-5 5-5 3-2 10 1z" fill="#0C060A"/>
<path transform="translate(311,753)" d="m0 0h6l8 7 2 3-5-2-5-4-9 1-10 6-3 5 1 5 4 6 5 8 3 5 1 8 1 3 10 2 7 1 1-3-1 7-4 1-11-1-7-4-4-8-1-8-4-8-5-9-1-5 3-6 9-7z" fill="#F2D3C1"/>
<path transform="translate(551,706)" d="m0 0 12 2 6 5-1 5-6 9-6 8-6 5-1-3v-28z" fill="#0C060A"/>
<path transform="translate(371,453)" d="m0 0h5l11 10v3h2l1 7-2 9-5 8-7 7-5 1 1-4 6-13 1-18h-6l-4-3v-5z" fill="#F0E6E6"/>
<path transform="translate(224,795)" d="m0 0 2 1-7 4-21 9-11 5-8 3-4 2-7 1v2l-10 3-7 3-4 2-9 2-4 3-5 2-9 5h-2v2l-8 4-4 4-5 3-3-1 7-7 14-9 6-4 13-5 6-3 9-3 25-10 8-3 24-10 8-4z" fill="#572F35"/>
<path transform="translate(507,788)" d="m0 0v3l-4 5-8 7-8 8-3 7-4 2-1 2 4 1h-3v2l-4 1-2 4-1 7 1 5-5 1-2-1v2h-2l-1 2-5 2h-3l-4 4-2 4-5 4-7-6 1-2 6 5 8-10 13-18 16-17 7-7 8-7z" fill="#371B1F"/>
<path transform="translate(599,578)" d="m0 0h1l-1 9-5 15-7 12-10 10-14 11-8 7-4 7-2 8h-1l1-11 4-6 5-9 5-4 1-2h3l1-4 6-3 3-5 4-2 2-4h2l2-4 1-3h3l1-6 3-6z" fill="#EA968F"/>
<path transform="translate(241,366)" d="m0 0 2 1 4 10 3 8 2 16v6h2v24l-3 1-2 4-2 3-3-4h4l-3-31-4-33z" fill="#613A43"/>
<path transform="translate(612,345)" d="m0 0 6 2 15 8 3 1 2-2v5l-2 4h-2l1 7v12l-2 14v6l-3 6-1-3 2-10v-7l-3-1 1-8h2v-8l-4-6-8-3-3-5v-4h-2l-3-4z" fill="#532A2E"/>
<path transform="translate(525,771)" d="m0 0h2v2l3 1-1 3-7 4-4 9-4 6-5 1-3 5-7-1-1 6-5 5-3 5-2 6-5 1v-2h-4l2-4 3-1 3-7 14-14h2l2-4 15-15z" fill="#2E181D"/>
<path transform="translate(556,699)" d="m0 0 9 2 8 5 6 8 2 3v51h-1l-1-45-1-4-4-1-2-2-2-5-2-4-7-1-4-2-8-1-1 34-2 9-9 11-16 17v-3l7-7 9-11 5-6h2l1-5v-40l1-2z" fill="#78393E"/>
<path transform="translate(247,460)" d="m0 0 3 1 7 8 9 11 1 7-7 13v5l-4-2-3-6v-7l2-8v-8l-5 2-7 8-4 4 2-6 4-6h2l2-4 1-1v-5z" fill="#2B1822"/>
<path transform="translate(505,457)" d="m0 0 3 1-2 18 2 9 3 6 2 1v2h2l1 5-3 1-8-4-4-4-5-13v-14z" fill="#F4CBBA"/>
<path transform="translate(215,464)" d="m0 0 2 3 2 5v19l3 11 3 6v5h2l-1 5 3-1 1 8 3 1 5 11 2 6-4-4-10-15-8-14-4-12-2-11v-8z" fill="#EA938C"/>
<path transform="translate(586,331)" d="m0 0 16 6 13 7 11 2-1-3-5-5v-3l7 2h5l4-6h2l1 3v17l-2 6-10-4-23-12-16-5z" fill="#271721"/>
<path transform="translate(253,301)" d="m0 0h23l12 1 3 2-35-1v2l-9 1-7 4v17l2 9 1 19 3 14v3l6-2 5-4 7-4 14-9 2 1-4 2v2l-9 5-3 1-1 3h-2l-2 5-4 1-1 3-7-1-3-2-3-7-2-17-2-35 1-7 11-5z" fill="#44252C"/>
<path transform="translate(578,456)" d="m0 0 5 3-1 8-5 14-6 7-9 6-10 4-5 1h-9l1-4 8-5 3-7 4-13v-11l-1-2 3 1v14l-2 12 1 3 6 1 7-3 6-5 5-11 1-11h-2z" fill="#F4CEBF"/>
<path transform="translate(251,474)" d="m0 0h4l1 8-2 8v7l4 7 1-4 7-13v-7l2 1v10l-4 7h-2v6l3 6 6 10 1 10v2h-2v2h-2l-2-9 1-4-4-6-6-7-6-10v-8l2-5v-9l-7 7-5 8-3 7-3-1 3-12 3-5 1 2-1 4 7-9z" fill="#934146"/>
<path transform="translate(812,857)" d="m0 0 7 6 16 12 23 12 11 8 4 5h-6l-7-6-10-6-13-4-9-3-5-7-5-9-5-4z" fill="#F4EDCF"/>
<path transform="translate(614,125)" d="m0 0 1 3-5 11-4 9 16-1 17 5 12 6 7 2v1h-10l-4-2-7-1v-2l-6-1-6-3-1-1-19-2-1-1v-12l-2-5-6-1-7-1v-1h18z" fill="#6E424C"/>
<path transform="translate(637,461)" d="m0 0v3l-4 7-3 6v9l2 6-1 8-5 6-1-2v-6l-5-8-1-7 3-8h2l2-5z" fill="#31191D"/>
<path transform="translate(311,717)" d="m0 0 1 2-4 7-5 3-8 4-8 10-2 4-2 7-3 7-2 9-4 4-4-1 5-6 3-14 2-9 6-9 7-7 14-7z" fill="#F2D1C3"/>
<path transform="translate(419,291)" d="m0 0 8 1 25 10 25 3 15 4 8 4 5 3-1-5-4-4-1-8 5-1 5 4v2l5 2 2 1h6l1-7h1v9l-1 1-8-1-10-6-4-2 5 9 4 5v4l-4 1-11-7-16-5-26-3-17-6-14-6-2 3z" fill="#432226"/>
<path transform="translate(432,45)" d="m0 0 4 1 8 7 3 6 1 6v12h-1l-2-13-5-10-4-1-3 4h-2v5l-10 7-10 6-5 1h-2l-6 2h-6l5-5 2-1 10-1 13-7 5-4 4-7v-7z" fill="#71404A"/>
<path transform="translate(254,856)" d="m0 0h1v11l1 2 3 21 1 3h-2l1 5-1 2h-12l3-16z" fill="#949FBF"/>
<path transform="translate(658,185)" d="m0 0h2l7 8 10 11 3 3 7 3h5l3-2h4l-1 5-5 8-7 6-12 3-2 1v-3l9-1v-2h3l2-4h2l-1-7-5-1v-3l-4-1-5-3-4-5v-2l-4-2-5-7v-2h-2z" fill="#5B3640"/>
<path transform="translate(330,696)" d="m0 0 4 1-4 2-5 7h-3v13l2 7-1 4-5-1-2-4h-2l-1 6 1 5-4-5-3-4 7-14 9-11z" fill="#4A272E"/>
<path transform="translate(138,826)" d="m0 0 3 1-5 4-12 5-15 9-12 11-8 9-10 15h-2l-2 5-1 2-2-1 10-18 13-16 8-7 14-9 16-8z" fill="#9E4D50"/>
<path transform="translate(279,294)" d="m0 0h27l2 2-10 1-8-1-19 1-6 1 2 1 21 2v1h-35l-13 5h-2v20h-1l-2-18-1-2 5-5 6-3 12-3z" fill="#90464C"/>
<path transform="translate(297,335)" d="m0 0h1v9l-3 22-5 9-2 6-4 5-5 3-4 4h-2v2l-2 1-1 16v46l-2-2v-62l8-8 8-7 6-8 4-13z" fill="#A24B4E"/>
<path transform="translate(611,492)" d="m0 0h1v13l-1 7-1 1-3 31-3 20-4 2v-17l1-5h2v-11l3-16 2-6 2-17z" fill="#A74F51"/>
<path transform="translate(305,97)" d="m0 0 1 3-2 5-4 5-1 2v7l-3 5-2 2h-12l-8-2h-11l-5 3-2 4v7l-4-5-3-6 6-4 5-2 13-1 15 4h4l3-8 1-8 3-1 2-4z" fill="#7B4A56"/>
<path transform="translate(43,887)" d="m0 0h19l3 3 1 6-5-1v-3l-3 1-1-1-13 1-9 4-2 3h-9l3-5 7-6z" fill="#F3EEC9"/>
<path transform="translate(361,49)" d="m0 0 7 2 10 9 12 18h-3v-2h-2l-4-5v-2l-3-1-4-5-5-4-8-1-1 4-4 7-5 4-4 1-4 2-2-2 10-6 5-5 3-5 1-8z" fill="#693D47"/>
<path transform="translate(304,467)" d="m0 0 2 1 3 6 2 6 2 4 4 2 6 4 10-1v-6l3 2 3 6 6 5 1 3-1 1-8-1-12-4-9-5-7-7-5-14z" fill="#F4CCB8"/>
<path transform="translate(97,855)" d="m0 0v3l-3 5-5 10-4 5-1 3h-2l-2 4-1 3h-2l-1 5-2 7h-7v-3l2-1 3-9h2l2-5 1-2h2l2-4 5-8 8-10z" fill="#4D292E"/>
<path transform="translate(543,752)" d="m0 0h2v2l2 1-1 2 6-1 1 4-2 7-3-1v2l-7-1v2l-5 1-3-5 1-4 3-1 2-4z" fill="#2E181D"/>
<path transform="translate(511,445)" d="m0 0 2 1-8 8-1 2h5v10l3 3 7 2 3 10 2 2h5l5-4 3-8 2-1 12-1v-8l-2-1 4 1v11h-15l-1 6-6 8-6 1-5-4-2-9v-2l-10-1-1-1v-12l-5 2-4 1 2-5z" fill="#422024"/>
<path transform="translate(788,839)" d="m0 0 10 5 13 11 3 6 6 5 6 11 2 4h2l4 11v5l-2-3-6-12-7-10v-2h-2l-4-6-12-13-9-5-4-5z" fill="#A55152"/>
<path transform="translate(276,510)" d="m0 0 2 1 3 15 1 10 1 1 3 21 1 3v12l-2-2-3-9-6-36z" fill="#9B474B"/>
<path transform="translate(722,813)" d="m0 0 6 1 20 8 26 10 14 7 3 5-5-2-11-6-8-3-9-3-17-7-16-6-3-2z" fill="#9D5157"/>
<path transform="translate(545,647)" d="m0 0 2 1-10 8-15 9-22 12-24 11-15 5-4-1 19-7 24-11 17-9 2-3h4l1-3 3-2h4v-2l11-6z" fill="#592626"/>
<path transform="translate(230,281)" d="m0 0 2 1 1 6-1 4 1 8h7l8-4 10-2 12-1h35v1l-26 1-22 2-14 4-6 3h-6l-3-5v-16z" fill="#3D232C"/>
<path transform="translate(242,371)" d="m0 0 2 4 3 10 1 11 1 2 1 7 2 17-2 9-2 3-4-38-2-18z" fill="#984B52"/>
<path transform="translate(635,776)" d="m0 0 5 3-3 1 6 20 3 9 3 12 4 22 2 15v7h-1l-6-29-5-25-4-17-5-14z" fill="#7D3D43"/>
<path transform="translate(506,599)" d="m0 0h6l1 4-7 3-8 2-30 3h-5v-2l20-4 13-2z" fill="#B75A59"/>
<path transform="translate(675,237)" d="m0 0 3 2 13 1-1 6-9 19-1 5h7l2 1-1 4-4-1-2-1v-2h-3l-1-7 3-12 1-1v-9l-6-1z" fill="#623C46"/>
<path transform="translate(355,280)" d="m0 0 16 1 21 7 10 4 16 7v2l5 1-1-4 3 3-1 3-5-1-16-8-11-4-10-4-13-3-13-1-13 5-4 3h-2v-2l9-5z" fill="#4A262C"/>
<path transform="translate(347,651)" d="m0 0 6 1v2h3v2h3v2h3l5 5 8 3v2l5 1 6 4v2l6 2 8 4 8 2 1 3 2 1-6-1-17-8-9-5-22-13-4-3-5-3z" fill="#6B2F30"/>
<path transform="translate(575,709)" d="m0 0 6 4 2 6 1 14-2 38-2 29-3 17h-1l1-16 2-18 1-15v-51l-5-6z" fill="#E48C7B"/>
<path transform="translate(262,774)" d="m0 0h7v10l-2 10h-1l-1-10-15 3-8 2 5-5 4-1 1-3 7-3 3-1z" fill="#5C2A2C"/>
<path transform="translate(547,659)" d="m0 0h1l-1 13-1 18 2 7 1 2h-7l-3-5 1-7 2-18h2v-6l3-1z" fill="#DF826F"/>
<path transform="translate(287,580)" d="m0 0 3 3 1 5 2 1 2 7 2 5 6 9 7 8 9 10 11 11h-3l-10-9-14-14-9-14-7-18z" fill="#F6BBAB"/>
<path transform="translate(387,466)" d="m0 0h2l1 7-2 9-5 8-7 7-5 1 1-4 6-13 1-10h1l1 13h2l3-12z" fill="#F4C3B5"/>
<path transform="translate(253,301)" d="m0 0h23l12 1 3 2-35-1v2l-9 1-7 4v26l1 3v22h-1l-2-24-1-28 3-3z" fill="#5F363F"/>
<path transform="translate(421,292)" d="m0 0 13 5 15 6 21 3 12 2 8 2-4 1-8-2-22-2-17-5-12-5-3-2 3 6v3l-3 2-5-1-16-9 3-1 15 8h3l-4-10z" fill="#914146"/>
<path transform="translate(265,786)" d="m0 0h1v9l-5 26-2-4v-9l-1-1v-16l1-2h2v-2z" fill="#331A1F"/>
<path transform="translate(505,473)" d="m0 0 2 2 2 9 2 2h4l1 2 7 1 5 1 6-1-2 6h-2l-1 2-5 1-11-4v-2l-3-1-4-9z" fill="#D37261"/>
<path transform="translate(599,764)" d="m0 0 1 4-7 26-8 27-8 26-2 6h-2l-1 2 1-15 2 3 5-14 13-43z" fill="#7DBFA3"/>
<path transform="translate(347,825)" d="m0 0 5 1 2 7-1 8-5 3h-6l-1-2 2-5 1-6h2z" fill="#603137"/>
<path transform="translate(634,467)" d="m0 0 5 5 7 11 3 8-1 5-5-5-6-11-5-4-2-1z" fill="#8B3E42"/>
<path transform="translate(614,125)" d="m0 0 1 3-5 11-5 10-1-1v-12l-2-5-6-1-7-1v-1h18z" fill="#79505A"/>
<path transform="translate(523,412)" d="m0 0 3 1-2 1 2 1 3 7v5l-7 5-15 6-6 4h-3l-1 2-11-1 1-2 10-1 24-12h2l2-7v-3l-3-1-1-4z" fill="#D06F5F"/>
<path transform="translate(246,551)" d="m0 0 4 2 7 3v2l4-1 4 3 6 1 4 3 9 2 1 2v7l-2-3-1-4-11-1-12-4-6-4-7-7z" fill="#EB988F"/>
<path transform="translate(144,826)" d="m0 0 4 1-12 6-2 2-5 2-9 5h-2v2l-8 4-4 4-5 3-3-1 7-7 14-9 6-4 13-5z" fill="#593138"/>
<path transform="translate(552,458)" d="m0 0 3 1v11l-3 7-4 1v-2h-6v2h-3l-1 4-7 6h-7l-2-3 7 1 5-5 4-9h15l-1-11-5-1v-1z" fill="#924146"/>
<path transform="translate(283,765)" d="m0 0h4l3 12 5 9 4 12-1 4-5-15-4-6v-2l-4-1-1-3h-4l-1 2-4-1 5-5z" fill="#E98F89"/>
<path transform="translate(577,723)" d="m0 0h3v34h-1l-1-14-3 3h-2v-12l3-10z" fill="#2A1820"/>
<path transform="translate(637,461)" d="m0 0v3l-4 7-3 6v9l2 6-1 8-5 6-1-2v-6l-5-8-1-7 2-3 1 9 6 9 2-4-3-10 1-9 3-6-6 4 2-4z" fill="#592626"/>
<path transform="translate(610,390)" d="m0 0 5 3 2 5v56l2 1-4 1-1-61-4-3z" fill="#A44D4F"/>
<path transform="translate(432,45)" d="m0 0 4 1 8 7 3 6 1 6v12h-1l-2-13-5-10-4-1-5 5-3 2 2-5 1-5z" fill="#6C414B"/>
<path transform="translate(775,839)" d="m0 0h5v2l8 1 10 7 5 3 13 14 1 4-4-3v-2l-4-2v-2l-4-1v-2l-4-1v-2l-5-2-4-5-16-7z" fill="#582626"/>
<path transform="translate(178,810)" d="m0 0 3 1-4 4-17 6-11 5-9 2v-3l35-14z" fill="#9E535A"/>
<path transform="translate(547,735)" d="m0 0h2l-1 11-2 5-5 2-2 4-5 5-4 7-8 6-7 8-5 5-2-1 12-13 9-9 7-8 9-11 2-10z" fill="#4B2529"/>
<path transform="translate(340,650)" d="m0 0 2 1 1 3 3 3v6l-2 4v6l-3 1v20l-2 2h-7v-1l6-1 1-3z" fill="#C16863"/>
<path transform="translate(306,447)" d="m0 0 2 1-8 7v2h5l-1 2h-2l3 10v4l-3-1-2-4-5-5-1-5 5-6z" fill="#3D1F26"/>
<path transform="translate(257,127)" d="m0 0 2 2-2 18-2 9-1 3-3 2-1 17 1 6-2 3-1-7v-17l3-7 4-15v-11z" fill="#643A44"/>
<path transform="translate(665,288)" d="m0 0 4 1-2 2 1 7-5 5-10 6-10 4v-2h2v-3l5-3 8-2 3-1v-8l3-3z" fill="#542F36"/>
<path transform="translate(332,767)" d="m0 0h2l1 3 1 11 2 4v8l-4 2-4 9-1-3 3-19 1-11z" fill="#6C3B41"/>
<path transform="translate(333,434)" d="m0 0h23l7 3-3 1-10-2h-12l-11 2-13 5-11 7-7 6-3 4v-5l10-8 11-7z" fill="#A44D4F"/>
<path transform="translate(611,492)" d="m0 0h1v13l-1 7-1 1-2 17-1 5-4 2 1-10 4-16 2-17z" fill="#994549"/>
<path transform="translate(289,304)" d="m0 0 10 1 6 2-2 10-5 18-1 8-3 3-4-1v-2h2l2-4 1-10 3-4 4-13v-3l-13-4z" fill="#2E1921"/>
<path transform="translate(101,849)" d="m0 0 2 1-11 11-8 11-5 8h-2l-2 5-1 2-2-1 10-18 9-11z" fill="#97484E"/>
<path transform="translate(246,432)" d="m0 0 2 1-5 1v3l-5 2-7 8-3-2-4 5-3 1 2-5 8-9 11-4z" fill="#EA9890"/>
<path transform="translate(821,866)" d="m0 0 5 2 12 9 13 6v1l-7-1-14-4-3-2-4-7z" fill="#FDFDFB"/>
<path transform="translate(360,762)" d="m0 0 5 4 7 8 9 10 23 23h-3l-5-5-13-12-7-7-7-8-5-6-4-5z" fill="#4C2529"/>
<path transform="translate(626,467)" d="m0 0 3 1-4 5-3 3-2 7 1 7 2 3v6h2l-1 6-3 3v-5l2-3h-3l-1-1-1-3h2l-3-7 1-8 2-8 2-3h2v-2z" fill="#C7675C"/>
<path transform="translate(214,795)" d="m0 0 2 1-3 4-23 9-7 3-3-1v-2l32-13z" fill="#A3555B"/>
<path transform="translate(43,887)" d="m0 0h19l3 3-1 3-4-4h-9l-10 2-10 5-2 4h-5l3-5 7-6z" fill="#FEFEFD"/>
<path transform="translate(681,796)" d="m0 0 5 1 29 12 8 3-1 2-7-1-10-5-9-3-9-4-6-3z" fill="#9C525A"/>
<path transform="translate(251,474)" d="m0 0h4l1 8-2 8h-2l1-5v-9l-7 7-5 8-3 7-3-1 3-12 3-5 1 2-1 4 7-9z" fill="#924146"/>
<path transform="translate(467,76)" d="m0 0h19l-1 4-4 4-1 6 1 2-3-1v-12h-9l-1 1-15 1 3-2z" fill="#9A5157"/>
<path transform="translate(641,315)" d="m0 0 2 3v13l-3 38-2 4v-19l1-2z" fill="#7F5461"/>
<path transform="translate(224,278)" d="m0 0h1v13l-1 1 1 13 1 2 6 1-3 4-6-1-2-6v-16z" fill="#73444F"/>
<path transform="translate(330,696)" d="m0 0 4 1-4 2-5 7h-3l-1 4-3 6h-2l-2 4-3 5h-2l3-9 10-13z" fill="#6B3F49"/>
<path transform="translate(333,483)" d="m0 0 3 2 3 6 6 5 1 3-1 1-8-1-12-4-2-2 13 1z" fill="#F4C2B3"/>
<path transform="translate(247,168)" d="m0 0h1l1 20-1 1h-14l-9-2v33h-1v-36l3-1 7 3 13 2z" fill="#9D6171"/>
<path transform="translate(339,75)" d="m0 0 2 1-1 2-5 2-2 3-7 2v2l-7 2-5 5-5 3-3-1 9-8 14-8z" fill="#73424C"/>
<path transform="translate(363,57)" d="m0 0 6 1 9 8 7 8v2h2l-1 2-8-7-5-5v-2h-3v-2h-6l-5 5-3 2 2-4 3-7z" fill="#4A272D"/>
<path transform="translate(608,149)" d="m0 0 16 1 5 3 8 3v2h7l6 2 4 2h-11v-2l-10-2-11-4-14-4z" fill="#46262C"/>
<path transform="translate(609,729)" d="m0 0 5 5 8 13 8 16 6 9h-3l-6-7-7-17-7-10-4-7z" fill="#F6E4D4"/>
<path transform="translate(500,298)" d="m0 0 5 1 4 3v2l5 2 2 1h6l1-7h1v9l-1 1-8-1-10-6-4-2 5 9 2 2 1 6-4-1v-5l-5-5-1-8z" fill="#3C1F25"/>
<path transform="translate(336,697)" d="m0 0h6l1 1v24h-1l-1-17h-7l-4-1 1-4z" fill="#2D181E"/>
<path transform="translate(373,598)" d="m0 0 5 1 16 6 3 1v2l-15-2-11-2 1-5z" fill="#411F24"/>
<path transform="translate(499,466)" d="m0 0h4l1 13 1 8-4-2-3-7v-11z" fill="#FEFEFD"/>
<path transform="translate(234,451)" d="m0 0 6 1 2 1v2h3l3 3 1 4 2 4v5l-4 3 1-8-5-5-6-5-7-2 1-2z" fill="#954347"/>
<path transform="translate(651,850)" d="m0 0h1l2 10v5h2l4 19 1 15h-1l-3-19v-4h-2l-3-9-2-5z" fill="#C8685B"/>
<path transform="translate(350,436)" d="m0 0 10 1 12 6 9 8 3 5v2l-4-1-4-3-4-1v-2h3l-4-6-12-6-9-2z" fill="#462126"/>
<path transform="translate(340,297)" d="m0 0h29l6 1 2-1 7 1v1l-12 1-17-1h-10l-20 4 1-2 7-3z" fill="#D06F5F"/>
<path transform="translate(542,95)" d="m0 0 11 2 18 7v3l-5 3h-3l-2-6-3-2-6-2-10-4z" fill="#663E48"/>
<path transform="translate(384,461)" d="m0 0 3 2 1 7-2 5-2 9-4 2v-20l2 2v5h2l1-7z" fill="#F1E5C6"/>
<path transform="translate(226,271)" d="m0 0 2 4v6l-1 5-1 14 1 5 8 1-1 2h-8l-2-3-1-13 1-1 1-15z" fill="#47262C"/>
<path transform="translate(349,71)" d="m0 0m-1 1 3 2-4 1v2h-2l-1 2h-4v2l-8 4-13 7-5 2 1-3 6-4h5v-2l7-3 4-4h3l1-3 5-1z" fill="#49272D"/>
<path transform="translate(578,456)" d="m0 0 5 3-1 8-5 14-6 7-7 5-2-1 3-1 2-5 7-6 5-11 1-11h-2z" fill="#F4CBB8"/>
<path transform="translate(297,335)" d="m0 0h1v9l-3 22-6 11-7 8-6 5-2-1 12-12 5-8 3-11z" fill="#994649"/>
<path transform="translate(658,185)" d="m0 0h2l7 8 10 11 3 3 5 2-1 2-6-2-5-3-4-5v-2l-4-2-5-7v-2h-2z" fill="#693E48"/>
<path transform="translate(331,464)" d="m0 0h1v9l17 1 2 10 4 1h7l3-2-2 4-3 2-4-1-7-4-3-7-14-1-1-2z" fill="#8F4045"/>
<path transform="translate(247,460)" d="m0 0 3 1 7 8 2 3-4-2v2 2l-5 2-7 8-4 4 2-6 4-6h2l2-4 1-1v-5z" fill="#592626"/>
<path transform="translate(332,469)" d="m0 0 1 3h17l2 3 2 7 7 1 4-2-2 4-1 1h-7l-4-2-2-10h-15l-2-1z" fill="#411F23"/>
<path transform="translate(591,407)" d="m0 0 2 1v2h-40l-8 1h-19v-1l23-2z" fill="#AC5353"/>
<path transform="translate(227,272)" d="m0 0 2 2 1 7-1 4v14l2 5 6-1v2l-7 1-3-1-2-5 1-18 1-1z" fill="#2E181E"/>
<path transform="translate(545,647)" d="m0 0 2 1-10 8-15 9-4 1 1-4h4l1-3 3-2h4v-2l11-6z" fill="#622A2B"/>
<path transform="translate(245,357)" d="m0 0h2l1 9 4 1 4-2h3v-2l10-6 2 1-11 8-7 4-2 2h-5l-1-3z" fill="#2D181D"/>
<path transform="translate(272,329)" d="m0 0h7l2 6-1 2-8 4-2-1 1-8z" fill="#281823"/>
<path transform="translate(642,309)" d="m0 0h3v2h-2l-1 4-2 37-2 2v-36z" fill="#351D26"/>
<path transform="translate(342,854)" d="m0 0h2l2 6 1 6v12l-2 2-2-9-2-5z" fill="#2F181D"/>
<path transform="translate(653,849)" d="m0 0 2 4 4 18v2h2l1 14v13h-1l-4-27-4-19z" fill="#512B31"/>
<path transform="translate(762,829)" d="m0 0 7 1 18 8 4 6-5-2-11-6-8-3-5-2z" fill="#9B4B4F"/>
<path transform="translate(347,651)" d="m0 0 6 1v2h3v2h3v2h3l5 5 8 3v2l-8-2-10-6-4-3-5-3z" fill="#713233"/>
<path transform="translate(511,445)" d="m0 0 2 1-8 8-1 2h5v10l3 3 6 1v1h-10l-1-1v-12l-5 2-4 1 2-5z" fill="#391E24"/>
<path transform="translate(297,122)" d="m0 0v3l-2 3h-12l-12-2-13 1 2-3 8-1 11 1 3 1h12z" fill="#46252C"/>
<path transform="translate(506,599)" d="m0 0h6l1 3-9 3-10 2h-7l3-2z" fill="#462022"/>
<path transform="translate(666,156)" d="m0 0h3l-1 13-6 12-2 1 1-8 4-5v-7l-6-2 3-2z" fill="#A36D79"/>
<path transform="translate(524,92)" d="m0 0 16 2 11 4-4 3-10-2-1-2-8-1v-2l-4-1z" fill="#623C45"/>
<path transform="translate(650,856)" d="m0 0 1 2-1 8-2 1-2 7-3 7h-1v-7l3-12 2-3h2z" fill="#E98F89"/>
<path transform="translate(239,327)" d="m0 0 2 4 1 5 1 19 3 14-1 4-2-3-2-4-1-27-1-3z" fill="#48262C"/>
<path transform="translate(649,452)" d="m0 0h4l-1 3-10 5-6 7v-3l1-2-8 6 2-4 5-5 4-2 1-2z" fill="#964348"/>
<path transform="translate(533,302)" d="m0 0 6 1 7 3 21 7 16 4v1h-7l-26-8-12-4z" fill="#49252B"/>
<path transform="translate(220,236)" d="m0 0h1v7l-1 9v5l2 1 2 10 2 3v5l-2-2-6-14-1-4v-9z" fill="#8C5461"/>
<path transform="translate(279,542)" d="m0 0h1l3 20 1 4-4-1v-2l-4-1v-8h3l-1-4z" fill="#C8685D"/>
<path transform="translate(695,208)" d="m0 0h4l-1 5-5 8-2-3-1-4-5-2v-2h7z" fill="#683F4A"/>
<path transform="translate(435,52)" d="m0 0 5 1 2 2 2 4 3 10v9h-1v-6h-2l-1-7-4-9h-4l-2 4-2 2v-5h2z" fill="#44252C"/>
<path transform="translate(473,559)" d="m0 0 5 1-1 4-10 4h-5l1-3 7-5z" fill="#401E22"/>
<path transform="translate(588,453)" d="m0 0 2 1 1 5-5 11-5 6h-1l2-18h2l1 7 3-5z" fill="#422126"/>
<path transform="translate(684,252)" d="m0 0h2l-6 18h7l2 1-1 4-4-1-2-1v-2h-3l-1-7 5-11z" fill="#905663"/>
<path transform="translate(476,848)" d="m0 0 4 1-4 4-5 2v2h-2v3l-7 1 1-3 5-1-2-1v-2h2l1-3 5-2z" fill="#2E181D"/>
<path transform="translate(253,468)" d="m0 0 7 4 6 8 1 7-2 2v-8h-2l-5-5-1 9-2 2v-10z" fill="#3C1D21"/>
<path transform="translate(406,560)" d="m0 0h8l6 2v4l-3 1-11-3z" fill="#3B1E25"/>
<path transform="translate(264,534)" d="m0 0h2l3 5h3l1-5h1l1 10-8-2-5-2v2l-5 1v-2l-2-1 5-1 2-2z" fill="#D06F5F"/>
<path transform="translate(225,187)" d="m0 0h7l2 1 12 1v1l-15 2-5 1v10h-1z" fill="#5E3840"/>
<path transform="translate(635,776)" d="m0 0 5 3-3 1 6 20 2 13-2-2-4-17-5-14z" fill="#924146"/>
<path transform="translate(254,778)" d="m0 0 2 1-16 8-20 8-3-1 18-8z" fill="#C07374"/>
<path transform="translate(526,320)" d="m0 0 14 1 17 3 2 2-19-1-4-2h-12l-3 2v-3z" fill="#D06F5F"/>
<path transform="translate(641,784)" d="m0 0 7 1 8 4 10 4 2 2-9-2-9-4-9-2v5h-1v-7z" fill="#552B2F"/>
<path transform="translate(394,605)" d="m0 0 8 1 12 3 1 2-16-1-17-3v-1l13 1 2 1v-2z" fill="#A14B4E"/>
<path transform="translate(273,493)" d="m0 0 2 3 2 9-1 20-2-2v-9l-1-9z" fill="#B75A59"/>
<path transform="translate(373,463)" d="m0 0 5 1 1 6-1 1-9 1-2 9-2-1 1-10 7-2v-3z" fill="#361C22"/>
<path transform="translate(679,271)" d="m0 0h3v2l3 1 2 2-18 12 1-5 7-2 2-5h2z" fill="#6E3F49"/>
<path transform="translate(348,827)" d="m0 0 3 1v9l-4 6-3-1 1-5z" fill="#EBBEB3"/>
<path transform="translate(279,294)" d="m0 0h27l2 2-10 1-8-1-22 1 2-2z" fill="#924146"/>
<path transform="translate(120,839)" d="m0 0 3 1-5 2v2l-8 4-4 4-5 3-3-1 7-7 6-4 4-1z" fill="#572F34"/>
<path transform="translate(556,699)" d="m0 0 9 2 8 5 6 8 2 3v5l-2-4v-2l-4-2-5-8-11-4-4-2z" fill="#A5656E"/>
<path transform="translate(297,403)" d="m0 0 2 1-2 3 2-1h31l3 2h-39v-3z" fill="#402228"/>
<path transform="translate(355,280)" d="m0 0 16 1v1l-15 1-13 5-4 3h-2v-2l9-5z" fill="#3E2128"/>
<path transform="translate(167,819)" d="m0 0 3 1h-2v2l-10 3-7 3-4 2h-6l4-3 8-4 9-2z" fill="#562C31"/>
<path transform="translate(575,709)" d="m0 0 6 4 2 6 1 14-1 24h-1l-1-37-3-6-3-3z" fill="#EDADA3"/>
<path transform="translate(541,682)" d="m0 0 2 4 3 10 3 3h-7l-3-5 1-7z" fill="#E17D65"/>
<path transform="translate(634,534)" d="m0 0v3l-1 2h-2v2l-7 3-2 1-1-4h-5v-2h3v-2h2v-2h2v5l8-3z" fill="#D06F5F"/>
<path transform="translate(637,461)" d="m0 0v3l-4 7-3 6-1 9-2-2 1-9 3-6-6 4 2-4z" fill="#5C2728"/>
<path transform="translate(356,282)" d="m0 0 13 1 13 3v1h-8l-11-2h-8l-10 4-3-1 11-5z" fill="#914045"/>
<path transform="translate(228,192)" d="m0 0 3 1-2 1-1 16-1 4-1 13h-1v-24l1-10z" fill="#46262E"/>
<path transform="translate(439,644)" d="m0 0 7 1 1 1v5l-6 1-4-4v-3z" fill="#B75A59"/>
<path transform="translate(547,735)" d="m0 0h2l-1 11-2 5-5 2-2 4-5 5-2-1 12-13 2-4z" fill="#4F272B"/>
<path transform="translate(318,288)" d="m0 0h9l8 3v2l-7-1-3-2h-6l-2 5-1 1h-8l-2-2 9-1z" fill="#432329"/>
<path transform="translate(820,874)" d="m0 0 5 5 5 9 3 6v3h2v3l-4-1-1-5-6-12-3-3z" fill="#53272A"/>
<path transform="translate(505,457)" d="m0 0 3 1-1 5-1 2h-2l-1 3v-2l-5 1 2-6z" fill="#EED9C0"/>
<path transform="translate(339,695)" d="m0 0h4l1 2v22h-1l-1-21h-6l-5 3-1 2-3-1 3-4z" fill="#582627"/>
<path transform="translate(612,528)" d="m0 0h2l-1 10-1 3h-2l-1-4 1-2-3 1v-6z" fill="#CD6C5E"/>
<path transform="translate(289,304)" d="m0 0 10 1 6 2-2 10-4 13h-1l1-8 3-10v-3l-13-4z" fill="#3E2025"/>
<path transform="translate(257,127)" d="m0 0 2 2-2 18-2 7h-2l2-13v-11z" fill="#4D2A31"/>
<path transform="translate(278,753)" d="m0 0 2 4-1 11-5 6-4-1 5-6z" fill="#F6DCD2"/>
<path transform="translate(614,518)" d="m0 0 5 5 1 6-3 3-3-7-3-3z" fill="#924146"/>
<path transform="translate(546,491)" d="m0 0v3l-2 2 14-1-3 2-8 2h-9l1-4z" fill="#F7B4A4"/>
<path transform="translate(549,460)" d="m0 0 4 1v11l-16 1v-2l2-1 12-1v-8z" fill="#2B1822"/>
<path transform="translate(347,86)" d="m0 0h9v2h2l1 3-4 2-8-4z" fill="#4D2B32"/>
<path transform="translate(358,60)" d="m0 0h1v5l-8 8-4 1-4 2-2-2 10-6 5-5z" fill="#7B4A56"/>
<path transform="translate(511,602)" d="m0 0 2 1-7 3-8 2h-18l3-1v-2h7l4 1 15-3z" fill="#A04A4D"/>
<path transform="translate(276,510)" d="m0 0 2 1 3 15-1 4-1-2-2 1-1-3z" fill="#9C484B"/>
<path transform="translate(257,475)" d="m0 0 5 3 2 3-1 5-5-1-1-1z" fill="#0C060A"/>
<path transform="translate(589,128)" d="m0 0h14l6 3-3 1v7l-2-3-2-5-6-1-7-1z" fill="#5F363E"/>
<path transform="translate(552,458)" d="m0 0 3 1v11l-1 3-2 1-14-1v-1h15l-1-11-5-1v-1z" fill="#6A363C"/>
<path transform="translate(288,377)" d="m0 0 1 3-5 6-5 3-4 4h-2v2l-2 1-1 8h-1v-9l11-10 7-6z" fill="#BD5F5A"/>
<path transform="translate(268,483)" d="m0 0 3 4v-4h2l1 3-1 14h-1l-1-9-3 4h-2z" fill="#D06F5F"/>
<path transform="translate(305,97)" d="m0 0 1 3-2 5-4 5-2 4-2 1-1-4 2-4h2l2-4z" fill="#784A56"/>
<path transform="translate(373,818)" d="m0 0 6 4 8 8 1 4-6-4-9-10z" fill="#0C060A"/>
<path transform="translate(178,810)" d="m0 0 3 1-4 4-8 3-4-1v-2z" fill="#9E5057"/>
<path transform="translate(224,795)" d="m0 0 2 1-7 4-7 3h-7l2-2 10-4z" fill="#583036"/>
<path transform="translate(262,774)" d="m0 0h7v10l-1 5h-1l1-14-8 4-1 2-8 1 1-2 7-3 3-1z" fill="#8E4347"/>
<path transform="translate(278,527)" d="m0 0 3 3 1 6v11l-2-4-2-7-1-7z" fill="#873C40"/>
<path transform="translate(266,480)" d="m0 0 2 1v10l-4 7h-2v5h-2l1-7 5-9z" fill="#AB5253"/>
<path transform="translate(334,486)" d="m0 0 2 4v4l-6 1-7-2v-2l10-2z" fill="#F3ECC8"/>
<path transform="translate(78,885)" d="m0 0 1 3h-2l-1 5-2 7h-6l5-9 3-5z" fill="#46252C"/>
<path transform="translate(97,855)" d="m0 0v3l-3 5-1 3-8 7-2 1 2-5 9-11z" fill="#562D32"/>
<path transform="translate(609,729)" d="m0 0 5 5 8 13 2 4-1 4-6-12-5-6-3-6z" fill="#F5E6CF"/>
<path transform="translate(373,598)" d="m0 0 5 1 4 4v1h-11l1-5z" fill="#371B20"/>
<path transform="translate(138,826)" d="m0 0 3 1-5 4-7 3h-6l5-4z" fill="#A7595C"/>
<path transform="translate(627,765)" d="m0 0 7 7 5 2 2 3h-6l-2 2-3-9h-2z" fill="#B497B4"/>
<path transform="translate(287,580)" d="m0 0 3 3 1 5 2 1 2 7v4h-2l-6-16z" fill="#F6B9A9"/>
<path transform="translate(501,490)" d="m0 0 8 5 3 1 1-4v2h2l1 5-3 1-8-4-4-4z" fill="#EE9C92"/>
<path transform="translate(349,489)" d="m0 0h3l1 4-3 4h-2l-1 3-2-1-1-4 2-1 1-3h2z" fill="#E98F89"/>
<path transform="translate(239,319)" d="m0 0 2 1 3 17v6l-2 1-3-17z" fill="#2F181D"/>
<path transform="translate(400,292)" d="m0 0 9 3 9 4v2l5 1-1-4 3 3-1 3-5-1-16-8z" fill="#47242A"/>
<path transform="translate(399,72)" d="m0 0h9l-3 1-1 3-6 2h-6l5-5z" fill="#7C4B56"/>
<path transform="translate(553,457)" d="m0 0 3 1v14l-2 10h-2l-1 3-1-2 4-13v-11z" fill="#DDB5B4"/>
<path transform="translate(372,443)" d="m0 0 4 1 5 5 4 5 2 9-5-5h2l-6-9-6-5z" fill="#A04B4D"/>
<path transform="translate(324,726)" d="m0 0 2 2 1 6-4 4-3-5-1-3h4z" fill="#281823"/>
<path transform="translate(224,220)" d="m0 0h1l1 10-2 8h-1l-1 5h-1v-10l2-6z" fill="#623942"/>
<path transform="translate(549,99)" d="m0 0 9 2 5 4v6l-4-4-2-1v-3l-8-1z" fill="#45252C"/>
<path transform="translate(775,839)" d="m0 0h5v2l8 1 7 5v2l-5-2-15-7z" fill="#562D32"/>
<path transform="translate(658,188)" d="m0 0h2l7 10 5 5 1 3-4-2-5-6v-2l-3-1-1-4h-2z" fill="#45252C"/>
<path transform="translate(83,867)" d="m0 0 1 2-2 7-3 4h-2l-2 5-1 2-2-1 10-18z" fill="#A7595E"/>
<path transform="translate(455,844)" d="m0 0 1 2-6 10-5 4-7-6 1-2 6 5 8-10z" fill="#4D262A"/>
<path transform="translate(544,676)" d="m0 0h2v14l1 7-2-1-3-10 1-5z" fill="#DD999B"/>
<path transform="translate(347,487)" d="m0 0h5v2h-3v2h-2l-1 4-5-1-4-4 1-2 3 3 4 1z" fill="#DC7A66"/>
<path transform="translate(462,77)" d="m0 0h15v1l-8 1-1 1-15 1 3-2z" fill="#623A44"/>
<path transform="translate(77,880)" d="m0 0h2l-2 5-6 12-4 3v-3l2-1 3-9h2l2-5z" fill="#6F3A3F"/>
<path transform="translate(354,489)" d="m0 0h2v2h8l4 5-5 1-4-2-1-2-3-1z" fill="#D06F5F"/>
<path transform="translate(650,305)" d="m0 0h5v3l-12 5v-2h2v-3z" fill="#5A323A"/>
<path transform="translate(419,291)" d="m0 0 8 1 12 5v2l-5-1-13-5-1 3z" fill="#402229"/>
<path transform="translate(252,159)" d="m0 0h1l-1 9v13l-2 1-1-4v-8l1-9z" fill="#48262C"/>
<path transform="translate(405,559)" d="m0 0h7v1l-6 1v2l13 3 2-1v4l-5-1-13-4 1-4z" fill="#9B474A"/>
<path transform="translate(620,493)" d="m0 0 3 2v4h2l-1 6-3 3v-5l2-3h-3l-1-1-1-3h2z" fill="#C8685D"/>
<path transform="translate(518,104)" d="m0 0h10l1 4-1 1h-5z" fill="#75414A"/>
<path transform="translate(521,80)" d="m0 0h3v5l-7 2-4-1z" fill="#945C65"/>
<path transform="translate(162,816)" d="m0 0 4 1-3 3-7 3-3-1-1-2z" fill="#A1575D"/>
<path transform="translate(219,472)" d="m0 0 3 1-1 8-1 6-2-2v-12z" fill="#DC7761"/>
<path transform="translate(640,348)" d="m0 0h1l-1 21-2 4v-19z" fill="#87505B"/>
<path transform="translate(243,305)" d="m0 0h2v2l-5 3-1 18h-1l-1-19 3-3z" fill="#532E36"/>
<path transform="translate(684,210)" d="m0 0 2 2 5 1 1 5-1 5-3 2v-3h2l-2-7-6-2v-2z" fill="#532B30"/>
<path transform="translate(666,162)" d="m0 0h1v9l-5 10-2 1 1-8 4-5z" fill="#6D424D"/>
<path transform="translate(522,85)" d="m0 0h1v7h-3v-2h-2v-2l-7 1v-2z" fill="#683F49"/>
<path transform="translate(318,708)" d="m0 0 1 2-1 3-2 1-1 5-4 6h-2l3-9z" fill="#874B53"/>
<path transform="translate(586,612)" d="m0 0v3l-9 9-6 5-2-1 10-10z" fill="#F5BEAF"/>
<path transform="translate(504,90)" d="m0 0h2v2l-7 3-17-1-1-2h17z" fill="#8F5F6C"/>
<path transform="translate(611,492)" d="m0 0h1v13l-1 7h-1l-1-13z" fill="#B75A59"/>
<path transform="translate(586,331)" d="m0 0 16 6v3l-14-4z" fill="#2D181F"/>
<path transform="translate(812,857)" d="m0 0 7 6 6 8 1 6-3-3-5-9-5-4z" fill="#E59788"/>
<path transform="translate(605,533)" d="m0 0 2 2-2 11-2 2-1-4 1-7z" fill="#843A3E"/>
<path transform="translate(637,383)" d="m0 0h1v11l-1 11h-1l-1-11 1-10z" fill="#984F58"/>
<path transform="translate(349,71)" d="m0 0m-1 1 3 2-4 1v2h-2l-1 2-10 2 3-3h3l1-3 5-1z" fill="#563038"/>
<path transform="translate(566,788)" d="m0 0h1v9l-5-2-1-4 1-2z" fill="#2F181D"/>
<path transform="translate(331,444)" d="m0 0h6l-1 8-1 9-3 1 1-8 3-9-7 1z" fill="#663237"/>
<path transform="translate(695,208)" d="m0 0h4l-1 5-3 4-1-5h-2l1-3z" fill="#965058"/>
<path transform="translate(255,123)" d="m0 0 2 1-2 4-1 6-4-4-1-3z" fill="#A36470"/>
<path transform="translate(257,123)" d="m0 0h6l-5 4-2 4v7l-2-3v-7z" fill="#6A3B43"/>
<path transform="translate(435,52)" d="m0 0 5 1 2 2-2 2-5-1-2 4-2 2v-5h2z" fill="#46262C"/>
<path transform="translate(395,679)" d="m0 0 5 2 8 2 1 3 2 1-6-1-10-5z" fill="#692E2F"/>
<path transform="translate(506,599)" d="m0 0h6l1 3-4 2-5-1v-3z" fill="#31191F"/>
<path transform="translate(409,566)" d="m0 0h5l5 5 6 4-2 1-10-5z" fill="#CE6D5E"/>
<path transform="translate(620,478)" d="m0 0 1 2-1 7 3 6-1 2-4-3-1-8z" fill="#A54E4F"/>
<path transform="translate(369,471)" d="m0 0h9l-1 2h-3v2h-3l-3 4v-7z" fill="#924146"/>
<path transform="translate(224,300)" d="m0 0h2l1 5 8 1-1 2h-8l-2-3z" fill="#4F2930"/>
<path transform="translate(681,240)" d="m0 0h10l-1 6-3 4-2-5 2-1 1-3h-7z" fill="#9A5663"/>
<path transform="translate(361,49)" d="m0 0 7 2 4 4-12-1z" fill="#9E5963"/>
<path transform="translate(125,834)" d="m0 0 4 1h-2v2l-12 6h-3l5-4z" fill="#5D3841"/>
<path transform="translate(173,815)" d="m0 0 3 1-2 2-14 5-4-1z" fill="#5D3841"/>
<path transform="translate(265,771)" d="m0 0 5 1v5l-1-3h-7v2l-5 3-1-2z" fill="#BE787A"/>
<path transform="translate(340,700)" d="m0 0h2v5h-8l-4-2z" fill="#281823"/>
<path transform="translate(414,609)" d="m0 0 11 1v2h-15l-3-2h7z" fill="#C9695D"/>
<path transform="translate(602,551)" d="m0 0h1v14l-3 1v-10z" fill="#753336"/>
<path transform="translate(582,463)" d="m0 0h1v6l4-2-2 4-5 5 1-9z" fill="#883F42"/>
<path transform="translate(578,456)" d="m0 0 5 3-1 8-2 7h-1l1-16h-2z" fill="#E1AEAA"/>
<path transform="translate(508,312)" d="m0 0 4 4 2 7-9-2-1-2h6z" fill="#924146"/>
<path transform="translate(665,288)" d="m0 0 4 1-2 2 1 7-2 2-3-4 1-5z" fill="#996268"/>
<path transform="translate(405,74)" d="m0 0 6 1-3 2-6 2h-13v-1l12-2z" fill="#48272E"/>
<path transform="translate(251,782)" d="m0 0 4 1-2 3-11 3 5-5z" fill="#582F35"/>
<path transform="translate(273,516)" d="m0 0 2 3 1 6 1 5-4-4-1 3-1-9h2z" fill="#C9695D"/>
<path transform="translate(254,487)" d="m0 0 1 4 1 9 4-2v7l-4-2-3-6v-7z" fill="#582526"/>
<path transform="translate(373,463)" d="m0 0 5 1 1 6-1 1h-9v-1l5-1-1-4z" fill="#3A1D24"/>
<path transform="translate(247,460)" d="m0 0 3 1 7 8 2 3-4-2-1 1h-2z" fill="#582729"/>
<path transform="translate(221,297)" d="m0 0 2 3 1 7 1 2h6l-2 3-6-1-2-6z" fill="#954B53"/>
<path transform="translate(500,304)" d="m0 0 3 1 4 6 2 7-4-1v-5l-5-5z" fill="#381C21"/>
<path transform="translate(302,106)" d="m0 0 1 3v5l-4 5-1-9z" fill="#46252C"/>
<path transform="translate(340,889)" d="m0 0h2l2 4-1 7h-3z" fill="#3D1D21"/>
<path transform="translate(106,843)" d="m0 0 2 1h-3zm-3 2 2 1-5 5-6 5-2-1 8-8z" fill="#C07172"/>
<path transform="translate(327,703)" d="m0 0h3v2l-6 4-1 7h-2v-7l1-3z" fill="#2C181F"/>
<path transform="translate(549,702)" d="m0 0h14l1 2 4 2-2 1-9-3-8-1z" fill="#47272E"/>
<path transform="translate(306,447)" d="m0 0 2 1-11 9-2 4-1-3 5-6z" fill="#3F1E21"/>
<path transform="translate(339,75)" d="m0 0 2 1-1 2-5 2-2 3h-5l-1-2z" fill="#894C56"/>
<path transform="translate(571,707)" d="m0 0 4 1 3 5 3 4v5l-2-4v-2l-4-2z" fill="#9C4C51"/>
<path transform="translate(221,490)" d="m0 0 4 5 2 9-4-4-2-5z" fill="#D16F5F"/>
<path transform="translate(652,435)" d="m0 0 4 2 6 7-3 2-7-9z" fill="#EE7C84"/>
<path transform="translate(679,269)" d="m0 0 10 2-1 4-4-1-2-1v-2h-3z" fill="#A1646C"/>
<path transform="translate(682,242)" d="m0 0 3 1-1 10-4 8-1-3 3-7z" fill="#4D2B32"/>
<path transform="translate(658,160)" d="m0 0h6l2 2v7l-3 3 1-9-6-2z" fill="#48272E"/>
<path transform="translate(563,101)" d="m0 0 9 4-4 4-4-5z" fill="#A5666F"/>
<path transform="translate(542,95)" d="m0 0 11 2 6 2-1 2h-5l-2-2-9-3z" fill="#784955"/>
<path transform="translate(430,58)" d="m0 0 1 4-7 5-2-1 1-3z" fill="#6A3C45"/>
<path transform="translate(538,494)" d="m0 0 3 1-2 1-1 3 14-1-4 2h-13l2-5z" fill="#E98F89"/>
<path transform="translate(212,479)" d="m0 0h1l3 13v3l-2 3-2-11z" fill="#F5BDAE"/>
<path transform="translate(504,465)" d="m0 0h2v14h-2l-1-11z" fill="#E2BCBB"/>
<path transform="translate(635,427)" d="m0 0h1v7h4l-2 5-3 1-1-6z" fill="#9C525B"/>
<path transform="translate(636,432)" d="m0 0h11v2l-6 3-2-1 1-2h-4z" fill="#D48880"/>
<path transform="translate(642,309)" d="m0 0h3v2h-2l-1 4-1 14h-1v-16z" fill="#46272E"/>
<path transform="translate(222,295)" d="m0 0 2 4 2 8 6 1v1l-7 1-3-6-1-8z" fill="#5E3841"/>
<path transform="translate(340,289)" d="m0 0 2 1-2 3-3 1h-9l-2-3 9 2v-2z" fill="#8E3F45"/>
<path transform="translate(514,92)" d="m0 0 5 1-1 3-5 1-3-2 2-2z" fill="#281823"/>
<path transform="translate(753,825)" d="m0 0 9 2 2 2-6 1-4-2z" fill="#A75D63"/>
<path transform="translate(681,796)" d="m0 0 5 1 7 3v2l-6-1-6-3z" fill="#994E56"/>
<path transform="translate(572,713)" d="m0 0 5 2 3 3v5l-2-4-4-1-2-2z" fill="#4C2A32"/>
<path transform="translate(611,489)" d="m0 0h2l1 4v7h2l-1 3-3 1-1-10-1-3z" fill="#CF6E5E"/>
<path transform="translate(552,486)" d="m0 0 9 2 4 1-6 2-5-1z" fill="#F3EEC9"/>
<path transform="translate(384,286)" d="m0 0 5 1 9 4 3 3-9-3-8-4z" fill="#53292E"/>
<path transform="translate(477,77)" d="m0 0h3v2h2l-1 5-1 6 1 2-3-1v-12z" fill="#774952"/>
<path transform="translate(361,58)" d="m0 0 5 2-5 4-5 5 2-4z" fill="#45252C"/>
<path transform="translate(828,881)" d="m0 0h2l4 11v5l-2-3-3-6z" fill="#C46B65"/>
<path transform="translate(214,795)" d="m0 0 2 1-3 4-8 2 2-4z" fill="#A55457"/>
<path transform="translate(518,776)" d="m0 0 1 3-9 9-2-1z" fill="#512528"/>
<path transform="translate(334,696)" d="m0 0h8l-3 2-4 1-4 2-1 2-3-1 3-4z" fill="#45252C"/>
<path transform="translate(303,447)" d="m0 0 2 1-9 8-3 4v-5z" fill="#AB5252"/>
<path transform="translate(432,45)" d="m0 0 4 1 4 4-6-1-2 2-1-5z" fill="#A16571"/>
<path transform="translate(256,493)" d="m0 0 1 3 5-1-1 3-5 2-2-6z" fill="#33191E"/>
<path transform="translate(304,467)" d="m0 0 2 1 3 6 2 6 1 2-4-1-4-12z" fill="#ECCCBD"/>
<path transform="translate(320,288)" d="m0 0h7l8 3v2l-7-1-3-2-5-1z" fill="#442227"/>
<path transform="translate(187,806)" d="m0 0h2l-2 4-4 2-3-1v-2z" fill="#A85C62"/>
<path transform="translate(679,271)" d="m0 0h3v2l3 1-5 5h-3l2-3h2z" fill="#542D33"/>
</svg>
